<svg xmlns="http://www.w3.org/2000/svg" viewBox="0 0 512 512" role="img" aria-label="Goal Quest icon">
  <defs>
    <linearGradient id="goalQuestBg" x1="8%" y1="6%" x2="88%" y2="96%">
      <stop offset="0%" stop-color="#ffbf69" />
      <stop offset="52%" stop-color="#ff8e6e" />
      <stop offset="100%" stop-color="#70f0b2" />
    </linearGradient>
    <linearGradient id="goalQuestGlass" x1="0%" y1="0%" x2="100%" y2="100%">
      <stop offset="0%" stop-color="rgba(255,255,255,0.42)" />
      <stop offset="100%" stop-color="rgba(255,255,255,0.08)" />
    </linearGradient>
  </defs>
  <rect width="512" height="512" rx="132" fill="#07111f" />
  <rect x="46" y="46" width="420" height="420" rx="112" fill="url(#goalQuestBg)" />
  <path d="M110 136c38-19 96-28 146-16 36 9 64 29 78 58 14 30 11 69-10 117-23 54-58 93-101 112-41 17-91 16-131-5-35-18-56-47-61-85-7-47 12-94 55-137 12-12 26-25 43-44l34 33c-17 18-31 31-42 42-31 30-45 58-41 87 2 21 13 36 32 46 25 13 59 13 89 0 32-14 58-44 78-89 14-31 17-55 9-72-8-16-25-28-48-34-34-8-76-2-106 11Z" fill="#07111f"/>
  <path d="M174 163c28-10 60-11 85-4 24 7 41 20 50 38 9 20 6 46-8 77-16 36-38 62-65 74-24 10-52 10-74-2-19-10-30-25-33-45-3-22 4-44 23-67 11-12 25-26 42-43l24 22c-16 15-28 28-38 39-10 13-15 24-13 33 1 7 4 11 10 14 11 5 25 5 38 0 15-7 30-24 42-51 9-19 11-34 6-43-5-10-15-16-28-20-18-4-42-2-62 5Z" fill="#f6f1e8"/>
  <circle cx="380" cy="142" r="32" fill="#07111f"/>
  <path d="M380 123l5 14h15l-12 9 5 15-13-9-13 9 5-15-12-9h15Z" fill="#ffbf69"/>
  <path d="M106 120c30-33 71-52 117-58 58-8 123 9 167 51 10 9 18 20 28 34-12-5-23-8-33-9-20-20-47-34-76-41-58-15-120-2-164 32Z" fill="url(#goalQuestGlass)" opacity=".55"/>
</svg>
