<svg xmlns="http://www.w3.org/2000/svg" viewBox="0 0 64 64" role="img" aria-label="Goal Quest favicon">
  <defs>
    <linearGradient id="favBg" x1="8%" y1="6%" x2="88%" y2="96%">
      <stop offset="0%" stop-color="#ffbf69" />
      <stop offset="55%" stop-color="#ff8e6e" />
      <stop offset="100%" stop-color="#70f0b2" />
    </linearGradient>
  </defs>
  <rect width="64" height="64" rx="18" fill="#07111f" />
  <rect x="6" y="6" width="52" height="52" rx="15" fill="url(#favBg)" />
  <path d="M17 24c7-7 18-10 27-5 5 3 8 8 8 14 0 9-6 17-14 20-7 3-17 2-23-3-6-4-8-11-5-18 1-3 4-6 7-8Zm8 3c-2 1-4 3-5 5-1 3 0 6 3 8 3 2 8 3 12 1 5-2 9-7 9-13 0-3-2-6-5-7-5-3-11-1-14 2Z" fill="#07111f"/>
  <path d="M44 14l2 5h5l-4 3 2 5-5-3-5 3 2-5-4-3h5Z" fill="#07111f"/>
</svg>
